<?xml version="1.0" standalone="no"?>
<!DOCTYPE svg PUBLIC "-//W3C//DTD SVG 20010904//EN"
 "http://www.w3.org/TR/2001/REC-SVG-20010904/DTD/svg10.dtd">
<svg version="1.0" xmlns="http://www.w3.org/2000/svg"
 width="600.000000pt" height="584.000000pt" viewBox="0 0 600.000000 584.000000"
 preserveAspectRatio="xMidYMid meet">
<metadata>
Created by potrace 1.16, written by Peter Selinger 2001-2019
</metadata>
<g transform="translate(0.000000,584.000000) scale(0.100000,-0.100000)"
fill="#ffffff" stroke="none">
<path d="M2830 5529 c-170 -86 -276 -119 -579 -179 -374 -75 -537 -162 -666
-355 -60 -91 -69 -99 -128 -109 -168 -31 -339 -152 -454 -321 -44 -65 -183
-302 -183 -312 0 -11 -103 -167 -163 -248 -33 -44 -108 -125 -165 -181 -121
-116 -116 -100 -84 -277 30 -162 29 -326 -4 -624 -29 -267 -28 -367 6 -497 26
-96 55 -156 112 -225 24 -30 48 -61 53 -70 6 -9 14 -22 18 -29 5 -7 9 -76 10
-155 2 -138 3 -144 38 -228 49 -116 117 -214 262 -375 207 -231 236 -266 302
-365 36 -52 87 -142 114 -200 26 -57 58 -112 69 -123 15 -13 47 -21 109 -27
195 -20 351 -65 563 -162 286 -131 402 -173 522 -188 128 -16 232 2 368 63 44
20 46 20 90 3 171 -66 182 -69 285 -69 153 1 263 33 527 153 288 131 414 171
594 192 54 6 117 17 140 25 38 13 43 20 89 121 72 156 184 316 337 482 195
210 298 351 350 476 32 77 33 85 35 230 l1 150 35 40 c112 130 160 241 179
410 10 88 9 125 -13 315 -33 293 -33 591 -1 727 25 106 22 125 -34 175 -185
167 -290 305 -435 571 -99 181 -166 277 -255 364 -96 94 -181 141 -317 175
l-83 20 -44 72 c-126 206 -288 293 -690 376 -311 63 -492 123 -678 225 -34 19
-66 34 -70 34 -4 -1 -77 -37 -162 -80z m270 -49 c160 -89 316 -141 590 -196
244 -49 337 -76 448 -131 100 -49 161 -107 233 -223 l61 -98 61 -12 c129 -25
200 -56 284 -123 102 -81 174 -179 283 -382 29 -55 96 -165 148 -245 77 -118
116 -166 215 -263 l120 -120 -16 -61 c-43 -163 -45 -385 -5 -736 42 -375 11
-515 -157 -712 l-40 -48 0 -152 c0 -151 0 -154 -33 -230 -19 -43 -44 -92 -58
-110 -13 -18 -43 -61 -67 -96 -24 -34 -80 -102 -125 -150 -173 -187 -226 -252
-306 -372 -46 -69 -101 -165 -124 -215 l-40 -90 -118 -16 c-209 -28 -324 -65
-610 -194 -385 -175 -543 -196 -751 -100 -84 39 -92 39 -178 2 -127 -54 -164
-61 -278 -54 -149 9 -219 32 -517 167 -63 28 -164 70 -224 92 -114 42 -358 98
-426 98 l-38 0 -52 107 c-90 190 -167 292 -458 613 -99 108 -167 210 -213 317
-34 77 -34 79 -34 231 l0 153 -46 52 c-166 189 -195 333 -148 735 29 250 29
529 -1 671 l-21 104 79 73 c121 111 280 321 353 465 33 66 138 243 183 309 94
139 246 241 409 275 68 14 91 23 99 39 39 74 123 189 164 224 99 85 302 161
539 202 89 15 291 65 375 92 63 20 261 114 304 143 30 22 37 20 136 -35z"/>
<path d="M2895 5409 c-157 -85 -296 -128 -655 -203 -346 -72 -452 -133 -571
-327 -40 -65 -68 -101 -83 -104 -117 -26 -195 -49 -240 -71 -120 -59 -223
-181 -361 -429 -141 -255 -227 -375 -366 -516 l-90 -91 22 -126 c18 -110 21
-151 16 -307 -3 -99 -15 -256 -26 -350 -25 -202 -26 -287 -6 -391 21 -111 69
-195 173 -306 l34 -36 2 -169 1 -168 37 -77 c51 -107 84 -153 223 -307 279
-310 364 -427 442 -606 21 -49 22 -50 75 -57 205 -28 368 -77 606 -184 436
-196 541 -212 776 -114 l97 41 92 -40 c223 -95 333 -83 687 74 343 152 457
189 657 217 l90 12 52 102 c77 153 158 266 304 429 222 246 284 325 337 430
l35 70 1 171 1 171 67 79 c156 184 182 325 129 709 -25 178 -24 531 1 648 l19
89 -60 56 c-160 152 -223 241 -433 607 -166 289 -269 376 -505 426 -33 7 -67
16 -75 20 -8 4 -37 45 -65 91 -87 147 -155 204 -313 263 -48 19 -144 45 -212
60 -399 83 -517 118 -675 197 -55 28 -104 54 -109 59 -17 15 -38 9 -131 -42z
m126 -409 c4 -41 10 -116 13 -166 l7 -91 -32 -7 c-18 -3 -34 -5 -36 -3 -1 2
-5 39 -9 83 -10 154 -16 160 -33 35 -16 -114 -16 -115 -46 -123 -16 -4 -32 -4
-36 0 -3 4 -19 55 -35 114 -16 60 -31 108 -34 108 -3 0 -2 -35 2 -77 3 -43 7
-95 7 -115 1 -37 0 -38 -33 -38 l-33 0 -6 59 c-4 33 -10 110 -13 170 l-7 111
60 0 59 0 23 -90 c13 -49 27 -90 31 -90 4 0 10 29 14 65 13 131 16 135 101
131 30 -1 30 -1 36 -76z m190 62 c14 -6 14 -18 2 -112 -16 -123 -12 -147 24
-156 39 -10 59 21 67 103 4 37 9 88 13 112 l6 43 39 -5 c22 -3 41 -7 42 -9 6
-7 -22 -224 -32 -249 -6 -14 -25 -38 -42 -52 -61 -51 -168 -27 -204 46 -16 35
-17 47 -6 140 16 143 17 147 49 146 14 0 33 -3 42 -7z m381 -68 c3 -2 -1 -27
-10 -54 -18 -57 -14 -65 40 -75 l36 -7 17 57 c12 43 20 55 31 51 9 -3 21 -6
27 -6 7 0 18 -4 26 -9 12 -8 7 -36 -29 -171 l-44 -162 -35 7 c-20 4 -39 10
-43 13 -3 4 0 33 9 66 16 63 14 68 -35 84 -37 12 -38 10 -62 -77 -11 -44 -26
-50 -73 -32 l-25 10 23 83 c13 46 33 120 45 164 l22 82 37 -10 c20 -6 39 -12
43 -14z m-1156 -39 c14 -14 24 -31 22 -37 -7 -21 -58 -32 -83 -18 -31 16 -60
9 -60 -15 0 -18 9 -21 73 -25 68 -5 76 -8 103 -38 73 -81 4 -192 -119 -192
-31 0 -46 7 -71 32 -17 17 -31 36 -31 40 0 5 16 16 36 24 34 14 37 14 56 -5
23 -25 51 -27 69 -5 24 30 -1 48 -76 55 -60 5 -72 10 -97 38 -66 74 -4 170
110 171 33 0 49 -6 68 -25z m1575 -115 c32 -17 38 -25 34 -43 -3 -12 -16 -89
-29 -170 -13 -82 -27 -151 -30 -154 -3 -3 -20 3 -38 14 -27 16 -33 25 -31 49
2 27 -3 33 -41 51 l-43 21 -20 -20 c-20 -19 -22 -19 -54 -3 -19 10 -36 19 -38
21 -6 5 230 251 242 253 4 0 26 -8 48 -19z m-1847 -112 c64 -66 116 -124 116
-128 0 -3 -17 -14 -37 -24 -37 -18 -38 -17 -55 4 l-18 23 -45 -24 c-40 -21
-45 -27 -40 -50 5 -23 1 -30 -30 -49 -20 -12 -38 -21 -39 -19 -2 2 -16 74 -30
159 -15 85 -29 162 -31 171 -5 15 55 58 82 59 6 0 63 -55 127 -122z m-310 -13
l27 -34 -36 -23 c-19 -13 -35 -26 -35 -30 0 -4 32 -53 72 -109 78 -110 77
-106 16 -140 -18 -10 -21 -7 -115 128 l-50 72 -33 -24 c-19 -14 -36 -25 -39
-25 -3 0 -16 15 -28 34 l-21 33 106 76 c59 42 108 76 108 76 1 1 14 -15 28
-34z m2403 -20 c23 -14 43 -31 43 -36 0 -6 -16 -47 -35 -90 -19 -44 -35 -83
-35 -86 0 -3 29 20 64 51 73 63 103 70 150 32 l28 -23 -70 -99 c-39 -55 -82
-116 -97 -136 -30 -44 -32 -44 -64 -19 l-25 19 60 83 c94 132 92 132 -52 -4
-51 -49 -52 -49 -78 -32 -14 10 -26 19 -26 21 0 2 20 52 45 110 25 59 44 108
42 110 -1 2 -31 -39 -66 -91 -35 -52 -66 -95 -68 -95 -10 0 -53 33 -53 42 0 5
15 29 33 53 17 24 59 82 91 129 33 47 62 86 65 86 2 0 24 -11 48 -25z m-2584
-287 l106 -127 -31 -26 c-17 -14 -34 -25 -38 -23 -4 2 -55 60 -113 130 l-106
127 31 26 c17 14 34 25 37 23 4 -2 55 -60 114 -130z m2944 -5 l34 -41 -39 -48
c-21 -27 -48 -64 -61 -82 l-24 -34 41 21 c22 11 63 34 91 50 l50 30 37 -45
c21 -25 33 -48 28 -53 -5 -4 -62 -54 -127 -110 l-118 -103 -25 23 c-13 12 -24
25 -24 28 0 3 41 40 90 80 49 41 88 76 86 78 -2 2 -50 -23 -107 -56 l-104 -59
-24 23 -24 24 78 103 c43 57 70 96 59 87 -10 -8 -51 -44 -91 -78 -74 -65 -92
-70 -112 -32 -10 17 3 32 112 130 67 60 126 109 131 107 5 -1 24 -20 43 -43z
m-876 11 c28 -14 30 -17 15 -33 -9 -9 -19 -32 -22 -49 -5 -26 -11 -32 -33 -32
-49 0 -76 -40 -65 -96 5 -27 2 -40 -13 -57 -11 -12 -25 -31 -31 -41 -9 -19
-12 -18 -42 13 -28 28 -32 37 -27 68 5 27 1 42 -13 61 -47 60 -6 142 70 142
27 0 51 7 67 20 31 24 54 25 94 4z m-2295 -49 l35 -14 -23 -31 c-17 -23 -29
-30 -46 -27 -25 5 -52 -15 -52 -38 0 -27 20 -25 87 11 67 35 71 35 105 21 42
-18 78 -65 78 -102 0 -59 -53 -125 -113 -140 -13 -4 -41 0 -62 9 l-37 16 21
32 c21 33 31 37 63 23 10 -4 24 1 37 14 17 17 19 25 11 41 -14 26 -36 25 -85
-5 -56 -35 -108 -33 -146 4 -20 21 -29 39 -29 63 0 43 39 100 82 121 40 20 32
20 74 2z m904 11 c0 -1 -22 -16 -48 -33 -34 -21 -58 -47 -79 -85 -38 -67 -112
-142 -167 -170 -46 -23 -83 -54 -98 -82 -13 -23 -9 -21 107 64 50 36 113 79
140 95 28 15 78 57 111 91 34 35 75 69 90 75 16 6 74 13 129 15 55 2 136 6
180 8 l80 4 -73 -30 c-41 -17 -93 -49 -121 -74 -58 -52 -81 -62 -168 -69 -141
-13 -195 -32 -315 -112 -86 -57 -100 -73 -65 -73 18 0 47 18 88 55 72 64 93
71 249 79 63 3 130 10 149 16 19 5 36 8 38 7 3 -4 -122 -100 -179 -139 -55
-37 -117 -48 -264 -48 -112 0 -129 -2 -173 -24 -26 -14 -73 -52 -104 -86 -61
-65 -143 -180 -130 -180 21 0 84 65 111 114 44 77 96 101 199 92 65 -5 81 -3
133 19 74 31 113 32 45 1 -34 -15 -68 -43 -100 -81 -28 -32 -70 -71 -95 -87
-48 -31 -185 -78 -226 -78 -43 0 -99 -37 -141 -92 -53 -68 -145 -240 -116
-215 12 10 38 51 59 90 63 122 95 147 221 173 43 9 96 25 118 36 39 20 39 19
-18 -32 -32 -29 -66 -69 -77 -89 -24 -47 -101 -107 -206 -159 -137 -69 -187
-142 -182 -270 l3 -77 13 54 c21 92 67 164 130 209 32 22 72 47 89 56 18 9 48
30 67 47 l35 30 -29 -53 c-16 -29 -35 -79 -41 -112 -15 -73 -50 -121 -148
-200 -94 -76 -115 -119 -116 -231 0 -73 3 -87 38 -155 l37 -75 -7 50 c-4 28
-8 88 -8 135 0 69 4 92 22 121 22 38 126 169 130 165 2 -1 -2 -18 -7 -37 -6
-19 -7 -79 -4 -139 7 -115 1 -137 -68 -237 -35 -51 -52 -135 -45 -221 6 -75
47 -164 108 -231 37 -42 39 -42 39 -18 0 36 -14 67 -46 102 -33 38 -54 85 -54
125 0 25 23 105 75 265 2 6 4 -8 4 -29 1 -22 16 -69 36 -111 43 -89 57 -151
54 -235 -8 -217 -5 -255 20 -291 24 -36 81 -85 141 -121 32 -20 30 -17 -18 35
-29 31 -59 71 -66 89 -18 43 -29 185 -20 245 l7 48 13 -38 c16 -46 44 -87 99
-147 71 -78 79 -95 81 -180 2 -88 15 -120 77 -187 42 -45 100 -87 66 -47 -29
34 -46 78 -54 139 -4 33 -12 66 -17 73 -16 19 -1 14 40 -12 20 -14 63 -34 94
-46 78 -29 111 -70 138 -174 26 -97 38 -118 81 -139 36 -17 48 -15 31 5 -5 7
-17 38 -25 68 -8 30 -18 62 -22 72 -6 15 -2 15 47 -2 29 -10 74 -24 100 -30
59 -15 106 -61 132 -126 48 -120 86 -157 163 -155 117 1 369 -43 398 -70 15
-15 -164 -10 -230 6 -33 8 -97 15 -143 15 -62 0 -100 6 -154 25 -92 32 -121
32 -237 -6 -157 -51 -228 -33 -376 92 -56 48 -56 49 -27 49 17 0 59 9 94 20
34 11 82 20 106 20 53 0 47 13 -14 30 -40 12 -59 11 -135 -5 -127 -25 -195
-18 -265 30 -30 21 -81 67 -113 104 l-59 66 62 1 c33 0 95 2 136 4 78 3 108
-6 180 -50 31 -20 30 -18 -10 18 -25 22 -67 54 -95 71 l-50 30 -60 -14 c-69
-17 -115 -19 -115 -6 0 15 -40 24 -53 12 -31 -25 -152 88 -202 189 -10 19 -27
46 -39 59 l-21 24 26 -17 c14 -9 61 -23 103 -31 102 -20 148 -45 223 -123 35
-36 66 -62 70 -59 9 10 -121 151 -175 190 -50 35 -187 100 -237 111 -94 21
-121 61 -134 193 -4 49 -14 100 -21 113 l-13 25 29 -27 c16 -14 65 -51 109
-80 73 -50 82 -59 105 -115 14 -33 33 -72 43 -86 17 -27 71 -61 86 -55 5 2
-22 46 -60 98 -38 52 -71 107 -74 122 -9 40 -40 74 -108 120 -128 85 -151 121
-160 248 -3 47 -11 98 -17 114 -6 16 -8 31 -6 34 10 9 163 -152 183 -193 11
-22 28 -73 38 -113 9 -40 26 -83 37 -95 19 -22 19 -22 12 53 -10 123 -52 208
-150 307 -138 139 -160 219 -90 332 21 34 41 74 46 89 6 25 8 23 15 -18 4 -25
16 -67 27 -95 17 -42 19 -66 15 -152 -4 -86 -2 -106 13 -131 38 -62 40 -53 40
200 0 215 -2 249 -19 293 -27 71 -35 137 -22 178 7 19 39 62 73 95 33 34 71
83 85 109 18 36 23 41 18 18 -4 -16 -10 -79 -14 -140 -6 -87 -13 -122 -35
-169 -14 -33 -25 -64 -23 -69 4 -12 83 97 115 158 24 46 27 64 33 215 3 91 7
166 8 167 14 26 86 90 121 108 26 13 62 36 79 51 l32 27 -5 -24 c-3 -13 -11
-46 -16 -73 -14 -65 -31 -95 -95 -171 -112 -132 -132 -198 -22 -73 180 205
174 197 201 301 39 149 71 199 148 232 21 8 57 15 80 15 33 0 59 10 108 40 59
37 80 46 80 36z m1696 -130 c16 -13 17 -18 6 -33 -7 -10 -17 -30 -23 -44 -8
-20 -19 -28 -49 -33 -52 -8 -75 -41 -66 -96 4 -26 2 -40 -4 -40 -6 0 -22 -12
-36 -27 -20 -22 -29 -25 -42 -17 -28 18 -43 59 -32 88 7 20 5 33 -11 61 -18
30 -19 39 -9 70 16 49 50 69 103 62 28 -4 48 -1 61 9 25 18 77 18 102 0z
m-2753 -156 c15 -17 27 -42 27 -58 l0 -27 81 -1 c44 -1 82 -4 85 -7 10 -10
-49 -88 -63 -83 -7 3 -42 8 -78 12 -83 9 -86 -7 -10 -56 l54 -35 -21 -33 c-11
-17 -25 -32 -31 -32 -15 0 -271 167 -275 180 -4 12 93 156 115 170 30 18 85 4
116 -30z m2887 -45 c22 -11 35 -12 59 -4 37 13 80 0 98 -31 11 -16 7 -24 -25
-56 -32 -32 -43 -37 -75 -35 -49 3 -75 -19 -84 -71 -4 -30 -12 -42 -32 -49
-14 -6 -33 -17 -42 -25 -15 -13 -19 -12 -38 12 -24 31 -27 62 -7 89 10 14 12
35 9 72 -5 48 -3 54 25 82 34 35 67 39 112 16z m736 -27 l23 -36 -112 -136
c-62 -74 -114 -135 -117 -135 -3 -1 -15 15 -28 35 l-24 36 21 22 21 22 -27 39
c-14 22 -27 41 -29 43 -1 2 -13 -2 -25 -9 -20 -10 -25 -8 -46 17 -13 16 -23
34 -23 41 0 6 26 19 58 27 31 9 102 30 157 46 55 16 106 28 114 27 8 -1 24
-18 37 -39z m-1871 -325 l-7 -233 -24 0 c-23 0 -24 3 -25 68 -1 37 -4 139 -8
227 -6 144 -4 164 13 204 l19 45 19 -39 c19 -37 20 -51 13 -272z m-1975 124
c0 -4 -8 -24 -19 -45 -32 -64 -34 -80 -12 -92 19 -9 23 -5 51 50 17 33 32 60
35 60 13 0 55 -24 55 -32 0 -5 -11 -31 -25 -58 -14 -27 -25 -53 -25 -57 0 -5
13 -14 29 -20 30 -11 30 -11 62 58 l32 68 31 -16 c17 -8 32 -17 34 -18 1 -1
-20 -50 -47 -109 l-50 -106 -33 14 c-40 17 -271 126 -275 130 -2 2 20 51 47
110 l51 107 29 -18 c17 -9 30 -21 30 -26z m2434 -194 c-48 -76 -103 -164 -123
-195 -36 -58 -48 -67 -68 -47 -16 16 198 407 240 437 l32 22 3 -40 c3 -35 -7
-55 -84 -177z m-1031 185 c24 -15 51 -55 95 -137 34 -64 83 -154 108 -200 41
-76 44 -85 30 -99 -8 -9 -17 -14 -20 -11 -9 9 -226 351 -241 378 -14 28 -21
91 -10 91 3 0 20 -10 38 -22z m1927 -8 c9 -16 21 -20 65 -20 46 0 56 -4 74
-26 26 -33 27 -54 2 -54 -11 0 -29 -12 -40 -26 -19 -24 -22 -25 -61 -13 -36
11 -44 10 -68 -8 -15 -11 -32 -35 -38 -54 -9 -26 -20 -36 -45 -44 -19 -5 -40
-14 -47 -19 -18 -11 -41 21 -41 59 -1 17 8 41 19 55 13 17 20 41 20 72 0 39 5
50 31 72 40 34 112 37 129 6z m669 -77 c17 -43 31 -87 31 -98 -2 -96 -201
-186 -286 -130 -22 14 -94 148 -94 174 0 4 50 28 111 52 61 24 130 51 153 60
22 10 44 17 47 18 4 1 21 -34 38 -76z m-4066 -236 c62 -40 127 -82 145 -92 36
-22 36 -23 21 -75 l-11 -37 -106 -7 c-134 -8 -252 -8 -252 0 0 4 5 25 12 46
l12 40 123 -7 c68 -4 123 -5 123 -2 0 3 -37 26 -82 52 -130 72 -133 75 -118
119 6 20 14 36 16 36 3 0 56 -33 117 -73z m3554 22 c23 -20 44 -29 68 -29 24
0 39 -7 54 -26 26 -33 27 -64 3 -64 -9 0 -29 -11 -44 -25 l-26 -24 -39 21
c-35 19 -42 20 -68 7 -17 -8 -38 -30 -47 -49 -18 -35 -23 -37 -98 -43 -23 -2
-25 2 -28 44 -3 41 1 50 24 68 18 14 28 32 30 56 4 49 21 74 57 91 41 18 72
10 114 -27z m612 -70 c7 -23 11 -42 9 -44 -2 -2 -69 -22 -148 -45 -80 -22
-153 -43 -162 -46 -13 -4 -20 5 -29 36 -7 22 -10 42 -8 44 3 2 295 89 320 95
3 0 11 -17 18 -40z m-1186 -40 c-25 -43 -27 -44 -242 -163 -151 -85 -195 -105
-202 -95 -5 8 -9 19 -8 24 0 16 368 249 403 256 67 14 69 13 49 -22z m-1851
-16 c24 -14 112 -69 198 -121 85 -52 156 -95 158 -97 2 -2 -1 -12 -7 -23 -10
-18 -23 -13 -216 88 -169 88 -211 114 -231 144 l-25 36 41 0 c27 0 55 -9 82
-27z m3073 -109 c6 -41 5 -43 -39 -75 -25 -18 -46 -35 -46 -39 0 -3 26 -13 57
-21 56 -15 58 -16 66 -58 5 -23 7 -45 5 -47 -3 -2 -51 12 -108 31 l-103 35
-70 -15 c-39 -8 -72 -13 -73 -12 -2 2 -6 21 -10 44 l-6 41 51 11 c29 6 60 11
69 11 10 0 55 33 102 74 47 41 88 71 91 67 4 -3 10 -25 14 -47z m-2218 -16 c5
24 33 31 33 7 0 -20 10 -19 26 3 12 16 13 15 14 -8 1 -23 2 -24 14 -7 16 21
27 22 20 2 -4 -8 -1 -15 5 -15 6 0 11 5 11 10 0 6 5 10 11 10 6 0 9 -7 5 -15
-7 -18 5 -20 22 -3 9 9 12 7 12 -12 1 -23 2 -24 14 -7 18 23 29 22 21 -3 -4
-11 -2 -20 4 -20 6 0 11 5 11 10 0 6 5 10 11 10 6 0 8 -9 4 -20 -4 -11 -2 -20
4 -20 6 0 11 5 11 10 0 6 5 10 11 10 6 0 8 -9 4 -22 -6 -19 -5 -21 6 -10 18
17 34 15 20 -2 -15 -18 0 -29 26 -19 15 6 16 4 6 -9 -16 -19 -5 -32 14 -16 7
6 16 8 20 4 4 -3 -2 -13 -13 -21 -17 -12 -17 -14 -2 -15 16 0 48 25 48 38 0 4
-16 25 -35 46 -19 22 -33 42 -30 45 3 2 11 -4 19 -14 12 -17 16 -18 32 -5 17
14 18 14 5 -2 -11 -15 -8 -23 23 -60 20 -23 36 -48 36 -55 0 -7 5 -13 10 -13
6 0 10 -6 10 -12 0 -7 -16 5 -36 27 -19 22 -33 35 -30 29 3 -6 -4 -17 -15 -24
-10 -8 -19 -21 -19 -28 0 -11 3 -12 14 -3 9 7 17 8 20 3 3 -6 -1 -13 -10 -16
-8 -3 -12 -11 -9 -17 4 -6 13 -8 21 -5 17 7 18 -6 2 -22 -9 -9 -7 -12 13 -12
22 -1 23 -2 7 -14 -20 -15 -14 -27 10 -19 13 4 13 1 -2 -11 -11 -9 -17 -18
-15 -21 3 -2 90 13 194 35 104 22 199 40 212 40 39 0 25 -17 -19 -24 -139 -21
-378 -71 -378 -79 0 -11 26 -8 307 34 201 30 203 30 239 11 l37 -19 -59 -6
c-32 -4 -158 -14 -279 -22 -236 -17 -245 -19 -245 -35 0 -8 17 -10 53 -6 28 4
179 13 335 21 272 15 285 14 325 -3 l42 -19 -43 -22 -43 -22 -331 11 c-297 10
-351 9 -337 -4 2 -2 114 -9 249 -15 135 -7 265 -14 290 -17 l45 -6 -37 -19
c-37 -19 -39 -19 -290 9 -139 16 -255 27 -257 25 -15 -12 34 -24 194 -47 245
-37 242 -36 221 -48 -11 -6 -33 -6 -64 1 -65 15 -327 61 -346 61 -22 0 -20
-17 2 -23 13 -4 11 -5 -5 -6 -28 -1 -29 -9 -5 -28 16 -13 15 -14 -5 -8 -25 7
-30 -4 -10 -24 10 -11 9 -13 -5 -8 -25 9 -33 -12 -12 -29 18 -14 17 -15 -8 -9
-31 6 -38 -9 -11 -24 10 -5 15 -13 11 -17 -4 -4 -14 -1 -23 6 -9 7 -19 10 -23
6 -4 -4 1 -12 10 -17 10 -6 15 -16 11 -25 -5 -15 -7 -15 -15 0 -5 9 -14 16
-20 16 -7 0 -6 -6 2 -15 17 -20 5 -32 -15 -15 -19 15 -34 5 -17 -12 20 -20 13
-32 -7 -14 -11 10 -21 13 -25 7 -4 -5 -2 -12 4 -16 5 -3 10 -11 10 -17 0 -6
-9 -3 -21 8 -20 18 -20 18 -14 -11 6 -27 5 -28 -8 -12 -19 23 -30 22 -22 -3 7
-23 -13 -28 -21 -5 -9 22 -23 8 -17 -18 4 -20 3 -21 -10 -4 -19 23 -26 22 -20
-5 4 -21 3 -22 -10 -5 -17 21 -31 22 -24 2 4 -8 2 -17 -2 -20 -5 -2 -12 5 -16
18 l-8 22 -4 -22 c-5 -26 -23 -31 -23 -8 0 8 -4 15 -10 15 -5 0 -10 -9 -10
-21 0 -28 -23 -19 -30 12 l-6 24 -8 -22 c-9 -28 -26 -31 -19 -3 3 11 0 20 -6
20 -6 0 -11 -6 -11 -14 0 -8 -5 -18 -12 -22 -8 -5 -9 0 -6 14 8 28 -8 39 -17
12 -10 -30 -26 -24 -19 6 5 19 4 25 -5 20 -6 -4 -11 -14 -11 -22 0 -8 -5 -14
-10 -14 -6 0 -8 11 -4 25 4 15 2 25 -5 25 -6 0 -11 -7 -11 -15 0 -8 -5 -15
-11 -15 -6 0 -8 9 -4 20 8 25 -10 27 -24 3 -5 -10 -13 -15 -17 -11 -4 4 -1 14
6 23 7 9 10 19 6 23 -4 4 -14 -1 -21 -11 -7 -10 -16 -14 -19 -8 -4 5 -2 12 4
16 5 3 10 11 10 17 0 6 -9 3 -20 -7 -21 -19 -28 -7 -8 13 17 17 0 28 -22 14
-29 -18 -35 -15 -15 8 24 26 11 39 -15 15 -11 -10 -20 -13 -20 -8 0 6 7 16 15
23 21 17 12 24 -14 10 -15 -7 -21 -7 -21 0 0 6 7 13 15 16 27 11 16 26 -12 20
-26 -6 -27 -5 -9 8 23 18 13 36 -17 29 -20 -4 -21 -3 -4 10 23 19 22 30 -3 22
-11 -4 -20 -2 -20 4 0 6 7 11 15 11 8 0 15 5 15 10 0 6 -10 10 -22 10 -21 0
-21 0 -2 15 15 11 16 14 4 15 -18 0 -278 -45 -344 -60 -27 -6 -54 -6 -68 -1
-22 8 -21 9 12 15 42 8 297 46 358 53 23 3 42 11 42 18 0 7 -11 10 -27 8 -16
-2 -130 -14 -256 -28 -226 -25 -228 -25 -265 -6 l-37 19 45 6 c25 3 155 10
290 17 135 6 247 13 249 15 14 13 -40 14 -335 4 -302 -10 -332 -9 -366 6 -21
9 -38 20 -38 24 0 3 16 14 36 23 34 16 54 17 317 2 155 -8 306 -17 335 -21 41
-4 52 -2 52 9 0 11 -50 17 -241 31 -132 10 -264 21 -292 25 l-51 6 40 18 c39
18 42 18 276 -17 254 -39 268 -40 268 -28 0 8 -365 82 -402 82 -10 0 -18 5
-18 11 0 8 16 10 48 6 40 -4 274 -52 356 -73 16 -4 26 -2 26 5 0 6 -7 11 -15
11 -8 0 -15 4 -15 9 0 5 9 7 20 4 25 -7 26 5 3 24 -17 13 -16 14 5 8 25 -7 31
12 7 21 -22 9 -18 26 4 19 23 -7 38 10 16 19 -8 3 -15 10 -15 16 0 7 6 8 19 0
25 -13 38 5 14 19 -10 5 -15 13 -11 17 4 4 14 1 23 -6 18 -15 21 0 3 18 -6 6
-8 15 -3 19 4 5 10 2 12 -4 3 -7 12 -13 20 -13 14 0 14 2 -1 19 -11 12 -13 21
-7 25 5 4 14 -1 19 -10 6 -10 14 -14 22 -9 8 5 9 10 1 18 -17 17 -13 31 4 17
20 -17 32 -5 15 15 -8 9 -8 15 -2 15 6 0 14 -4 17 -10 3 -5 11 -10 17 -10 6 0
6 6 -2 15 -7 9 -10 19 -6 23 4 4 14 -2 22 -12 14 -20 17 -16 15 19 -2 19 -1
19 12 3 19 -24 30 -23 22 2 -8 25 3 26 22 3 13 -17 14 -16 10 5 -6 26 8 29 22
5 9 -16 10 -16 11 5 0 12 5 22 10 22 6 0 10 -7 10 -15 0 -8 5 -15 11 -15 6 0
9 6 6 14 -10 24 7 28 17 4 l9 -23 4 23z m1638 -18 c14 -5 34 -24 43 -40 10
-19 28 -33 44 -37 39 -8 78 -50 78 -84 0 -26 -3 -29 -34 -29 -18 0 -39 -7 -46
-15 -11 -13 -16 -12 -42 10 -42 36 -87 33 -127 -7 -26 -27 -38 -32 -81 -32
-40 -1 -51 3 -56 17 -10 32 5 65 41 93 19 14 35 35 35 46 0 11 15 35 34 54 36
36 64 42 111 24z m-3606 -87 l113 -17 -5 -39 c-3 -21 -7 -41 -10 -43 -6 -6
-320 38 -330 46 -5 4 -5 24 -1 45 l7 37 56 -6 c31 -4 107 -14 170 -23z m19
-163 l72 0 0 -42 0 -43 -73 -37 c-123 -64 -124 -65 -22 -67 49 -1 91 -4 93 -6
3 -2 1 -20 -2 -40 l-7 -35 -93 0 c-51 0 -127 3 -169 6 l-77 7 0 38 0 39 98 49
97 50 -60 1 c-33 0 -76 3 -95 6 -34 6 -35 7 -31 46 l3 41 97 -7 c53 -3 129 -6
169 -6z m4057 -45 l150 -41 3 -47 c3 -44 1 -48 -25 -58 -37 -15 -306 -109
-311 -109 -2 0 -2 21 0 48 3 40 6 47 26 50 20 3 22 9 22 57 0 51 -1 54 -27 57
-26 3 -28 7 -31 51 -3 47 -2 48 20 41 13 -4 91 -26 173 -49z m-398 -50 c13
-14 23 -37 23 -51 0 -16 8 -27 23 -33 44 -17 73 -69 62 -113 -5 -20 -12 -23
-59 -23 -49 0 -55 3 -75 32 -30 46 -61 51 -123 20 -47 -24 -53 -24 -75 -10
-12 8 -32 13 -43 10 -17 -4 -20 0 -20 24 0 32 38 79 64 79 8 0 38 23 65 51 49
50 53 51 93 46 29 -4 50 -14 65 -32z m393 -265 c160 -28 153 -25 145 -68 -4
-21 -9 -39 -11 -41 -2 -2 -29 0 -59 6 l-55 10 -6 -38 c-9 -55 -10 -53 48 -64
l53 -11 -3 -39 c-2 -22 -5 -42 -7 -44 -5 -4 -327 49 -333 54 -2 2 -1 22 3 45
8 46 -4 44 109 24 33 -6 35 -5 41 30 11 54 3 63 -59 70 -31 4 -58 12 -61 17
-3 5 -3 25 1 45 8 41 -16 41 194 4z m-4001 -18 c37 -27 51 -59 51 -118 0 -58
-21 -94 -67 -113 -27 -11 -245 -53 -250 -48 -1 2 -5 21 -9 43 l-6 41 58 11
c33 6 82 14 109 18 57 7 85 27 85 59 0 45 -22 50 -133 31 -56 -10 -110 -20
-119 -22 -12 -4 -19 2 -22 18 -15 65 -19 61 94 85 118 25 171 23 209 -5z
m3542 3 c35 -19 69 -69 62 -94 -3 -11 9 -31 31 -53 25 -25 36 -45 36 -66 0
-40 -16 -49 -77 -44 -46 3 -52 7 -58 30 -4 15 -11 32 -16 39 -18 20 -64 24
-109 9 -40 -14 -45 -13 -86 7 -28 13 -44 28 -44 39 0 29 44 66 86 74 22 4 45
16 53 27 12 17 63 46 84 47 4 0 21 -7 38 -15z m-2151 -75 c12 -22 17 -18 -254
-189 -104 -65 -137 -81 -168 -81 -21 0 -38 4 -38 8 0 29 79 87 205 153 77 40
163 85 190 100 28 16 51 29 52 29 1 0 7 -9 13 -20z m1492 -224 c15 -17 28 -34
28 -38 0 -5 -17 -8 -38 -8 -27 0 -57 11 -99 38 -225 138 -333 208 -333 217 0
6 5 16 11 22 14 14 394 -188 431 -231z m595 -8 c17 -18 25 -38 28 -72 1 -26
10 -55 19 -65 29 -32 40 -78 26 -111 -14 -33 -26 -36 -54 -15 -11 8 -33 15
-48 15 -23 0 -30 5 -34 29 -10 47 -39 71 -85 71 -22 0 -49 -5 -61 -11 -16 -9
-22 -7 -34 9 -7 10 -27 25 -44 32 -36 15 -38 30 -7 65 17 20 35 28 72 32 32 4
61 15 80 30 39 31 105 27 142 -9z m-1849 -4 c2 -1 -19 -44 -46 -95 -27 -52
-75 -143 -107 -204 -58 -111 -76 -134 -107 -135 -14 0 -18 8 -18 33 0 24 23
71 86 173 161 259 157 254 174 241 8 -6 16 -12 18 -13z m682 -91 c36 -58 86
-140 113 -182 45 -72 67 -125 67 -163 0 -24 -7 -23 -46 7 -21 16 -56 70 -105
162 -39 76 -87 167 -106 202 -27 50 -31 66 -21 72 7 5 18 9 23 9 6 0 39 -48
75 -107z m-369 25 c1 -2 7 -106 14 -233 12 -222 11 -231 -8 -269 l-19 -40 -19
35 c-20 38 -24 152 -12 382 5 114 8 127 25 127 10 0 18 -1 19 -2z m1351 -179
c32 -17 58 -85 47 -124 -7 -23 -5 -42 6 -68 21 -50 19 -71 -9 -104 -23 -27
-25 -27 -43 -11 -11 10 -34 23 -51 29 -29 10 -32 15 -32 50 0 59 -34 89 -99
89 -42 0 -52 4 -62 22 -7 12 -21 30 -33 39 -17 14 -19 21 -10 36 19 32 64 47
105 36 27 -7 43 -6 61 3 28 16 92 18 120 3z m-353 -209 c37 -17 49 -18 82 -9
35 11 42 10 73 -12 36 -25 66 -67 66 -93 0 -9 -9 -35 -20 -56 -15 -30 -19 -50
-14 -80 7 -45 -9 -96 -37 -110 -27 -15 -35 -12 -47 15 -6 13 -25 31 -42 40
-25 13 -29 19 -20 35 11 21 13 60 4 85 -7 19 -56 46 -99 55 -22 4 -33 14 -40
36 -6 17 -16 38 -24 47 -11 14 -11 20 0 33 13 16 45 32 64 33 6 0 30 -8 54
-19z m-2610 -66 c35 -25 81 -104 81 -140 0 -17 -8 -42 -18 -54 l-18 -22 -26
40 c-19 29 -24 42 -16 50 15 15 -6 62 -26 62 -25 0 -26 -15 -4 -83 27 -82 19
-114 -33 -140 -29 -14 -42 -15 -65 -7 -92 35 -145 163 -95 229 l18 24 26 -35
c24 -31 25 -38 15 -66 -10 -27 -9 -34 7 -51 43 -48 64 -16 41 63 -21 72 -20
95 6 123 26 27 73 30 107 7z m3336 -55 c77 -18 141 -34 143 -35 2 -1 -9 -20
-23 -43 -23 -35 -31 -39 -55 -35 -24 5 -32 0 -58 -38 -28 -41 -30 -46 -15 -61
15 -15 15 -20 2 -44 -8 -15 -38 -52 -66 -84 l-53 -56 -65 15 c-51 13 -68 13
-77 4 -10 -10 -3 -21 32 -52 l45 -39 -35 -35 -36 -36 -107 101 -107 101 66 72
c84 89 115 108 155 94 42 -14 63 -50 55 -92 -6 -32 -5 -33 19 -28 14 2 46 -1
71 -8 24 -7 47 -11 49 -8 3 2 -34 62 -80 132 l-85 128 31 44 c17 25 36 43 42
41 7 -2 75 -19 152 -38z m-966 -25 c25 -21 38 -25 64 -20 62 12 121 -27 141
-92 9 -27 -10 -88 -32 -104 -13 -10 -17 -28 -17 -71 0 -52 -3 -62 -28 -83 -38
-32 -59 -30 -77 8 -12 26 -33 45 -58 54 -1 0 5 17 13 37 8 20 15 45 15 56 0
30 -40 70 -85 85 -32 11 -41 20 -47 47 -5 19 -13 43 -19 53 -10 16 -8 23 11
38 32 26 83 23 119 -8z m-2215 -125 c14 -17 26 -34 26 -38 0 -3 -31 -38 -70
-76 -45 -44 -70 -77 -70 -92 0 -22 33 -53 58 -53 8 0 48 33 89 72 l75 73 29
-33 c16 -18 29 -36 29 -41 0 -16 -133 -132 -169 -148 -30 -13 -39 -13 -77 2
-46 18 -108 84 -120 128 -11 48 6 81 84 159 42 42 80 76 84 77 3 1 18 -13 32
-30z m232 -231 c24 -17 44 -35 44 -39 0 -7 -29 -88 -56 -153 -5 -12 20 3 63
37 39 31 73 57 77 57 13 0 96 -63 96 -73 0 -5 -26 -44 -57 -86 -32 -42 -69
-93 -83 -114 -14 -20 -27 -37 -30 -37 -3 1 -18 11 -34 24 l-28 24 54 73 c79
108 79 109 -8 39 -43 -35 -84 -67 -89 -71 -6 -5 -23 2 -38 14 l-27 22 19 50
c68 177 64 163 41 135 -11 -14 -39 -53 -63 -87 -23 -34 -44 -62 -47 -63 -3 0
-18 11 -34 24 l-30 23 85 116 c46 64 88 117 92 117 5 0 29 -14 53 -32z m2544
-103 l123 -78 -34 -28 c-36 -30 -54 -35 -64 -19 -11 18 -36 11 -76 -20 -33
-27 -37 -34 -29 -55 8 -20 4 -27 -31 -51 -22 -15 -41 -25 -42 -23 -11 14 -76
303 -70 309 40 34 70 51 83 47 9 -2 72 -39 140 -82z m-835 -13 c189 -60 205
-67 205 -84 0 -18 -69 -3 -243 51 -89 28 -182 56 -207 63 l-45 12 45 7 c25 3
50 7 55 7 6 1 91 -24 190 -56z m575 -28 c14 -37 14 -38 -30 -63 -37 -21 -39
-24 -26 -44 23 -37 86 -159 86 -168 0 -7 -62 -49 -73 -49 -3 0 -28 43 -56 95
-29 52 -54 95 -57 95 -3 0 -22 -9 -43 -19 -24 -13 -42 -16 -48 -10 -5 5 3 -28
18 -73 41 -124 24 -166 -86 -207 -72 -27 -114 -22 -148 19 -24 28 -87 177 -87
205 0 12 49 35 75 35 7 0 25 -35 40 -77 35 -99 50 -123 77 -123 27 0 58 27 58
51 0 10 -13 53 -30 96 -16 42 -30 82 -30 88 0 6 17 17 38 24 38 13 94 41 222
110 41 22 78 40 83 41 4 0 12 -12 17 -26z m-1914 -86 c45 -23 46 -24 41 -63
-3 -22 -9 -93 -13 -157 -4 -65 -8 -118 -10 -118 -2 0 -24 10 -48 22 -38 18
-45 25 -40 44 5 19 -2 27 -47 50 l-53 26 -14 -20 -14 -21 -44 22 c-24 11 -44
23 -43 26 2 9 223 210 231 210 4 1 28 -9 54 -21z m249 -98 c66 -21 175 -48
243 -59 133 -22 143 -25 138 -44 -14 -47 -10 -45 -83 -31 -92 18 -95 18 -91
-8 2 -18 12 -24 48 -31 91 -16 90 -15 90 -48 0 -33 1 -33 -113 -9 -41 9 -52
-1 -45 -37 2 -12 17 -20 48 -25 107 -17 110 -19 110 -38 0 -47 -3 -48 -135
-26 -68 12 -126 23 -129 26 -2 3 4 57 15 120 11 63 17 119 15 125 -2 5 -5 2
-5 -7 -1 -22 1 -22 -52 -3 -51 18 -48 22 -85 -102 -17 -56 -34 -93 -41 -93 -8
0 -29 6 -48 14 l-33 14 28 89 c15 48 31 96 35 105 5 13 -2 19 -35 29 -48 15
-55 25 -40 63 8 21 15 26 28 21 9 -4 71 -24 137 -45z m960 -210 l74 -135 -47
-8 c-45 -8 -61 -1 -74 33 -2 4 -26 5 -55 3 -47 -5 -53 -8 -58 -33 -5 -24 -12
-28 -58 -34 -29 -3 -75 -6 -102 -6 l-51 0 -27 54 c-14 30 -35 60 -47 66 -19
10 -20 8 -20 -50 l0 -60 -50 0 -50 0 0 119 c0 65 3 133 6 150 l7 32 101 -7
c115 -7 145 -18 164 -56 10 -23 10 -33 -2 -62 -8 -19 -24 -37 -35 -41 -21 -6
-29 -25 -11 -25 6 0 22 -25 37 -54 15 -30 30 -53 34 -50 4 2 22 65 40 140 18
75 39 143 47 151 9 9 30 13 59 11 l45 -3 73 -135z"/>
<path d="M3210 3005 c-6 -8 -9 -26 -6 -42 5 -25 1 -31 -36 -53 -40 -24 -78
-72 -78 -98 0 -10 16 -13 58 -12 31 1 62 1 67 1 6 -1 -19 -18 -55 -38 -74 -41
-93 -63 -100 -113 l-6 -35 -21 40 c-11 22 -31 73 -43 114 l-22 73 30 32 c37
39 52 68 52 98 -1 19 -5 16 -22 -17 -45 -87 -75 -97 -103 -35 -21 46 -31 50
-37 15 -3 -16 1 -30 13 -41 26 -23 24 -34 -6 -34 -27 0 -48 27 -59 73 -4 18
-13 27 -26 27 -24 0 -38 -24 -45 -81 -4 -24 -8 -54 -11 -66 -7 -34 -41 -29
-64 10 -26 42 -26 27 0 -24 39 -76 74 -60 85 40 12 101 22 115 44 56 16 -46
52 -69 92 -61 28 5 31 3 50 -42 24 -55 20 -84 -16 -142 -62 -99 -166 -107
-151 -13 4 27 3 32 -4 18 -5 -11 -9 -41 -9 -67 -1 -50 14 -68 59 -68 33 0 108
76 127 131 10 27 20 49 24 49 3 0 13 -25 23 -55 18 -59 41 -80 94 -91 28 -6
33 -3 42 20 13 35 14 34 -15 28 -61 -11 -73 50 -19 98 42 36 54 41 150 65 57
14 74 22 83 42 6 13 11 26 11 28 0 3 -47 5 -105 5 -66 0 -105 4 -105 10 0 9
65 54 80 55 23 2 70 39 70 55 0 12 -13 28 -32 40 -39 24 -42 24 -58 5z"/>
</g>
</svg>
